<svg viewBox="0 0 533.4 499.86" xmlns="http://www.w3.org/2000/svg"><path d="m-20.8-29.84h582.57v553.37h-582.57z" fill="#fab232"/><g stroke="#1a1817" stroke-miterlimit="10"><path d="m246.67 307a112.55 112.55 0 0 1 -36.82 45.68s0 0 0 0c-1.85-.82-3.67-1.67-5.49-2.53l-.63-.32a111.55 111.55 0 0 1 -39.89-34.11 113.34 113.34 0 0 1 -6.76-10.5 112 112 0 0 1 -9.44-88.88 167.33 167.33 0 0 0 71.6 78.44q6.54 3.63 13.47 6.73c4.6 2.08 9.29 3.92 13.96 5.49z" fill="#fff" stroke-width="7"/><path d="m255.52 250.35a111.36 111.36 0 0 1 -8.85 56.65c-4.71-1.61-9.36-3.45-14-5.52s-9.11-4.31-13.47-6.73a167.33 167.33 0 0 1 -71.6-78.44 111.42 111.42 0 0 1 25.65-43.62c5.21-4.58 10.71-9 16.45-13.13a112 112 0 0 0 65.82 90.75z" fill="#fff" stroke-width="7"/><path d="m345.31 184.12a111.48 111.48 0 0 1 20.75 54.18 111.92 111.92 0 0 0 -110.54 12 111.68 111.68 0 0 1 -44.69-36q5.63-4.92 11.79-9.37t12.57-8.29a166.66 166.66 0 0 1 53.48-20.57 168.34 168.34 0 0 1 48.05-2.45 109.65 109.65 0 0 1 8.59 10.5z" fill="#fff" stroke-width="7"/><path d="m336.72 173.66a168.34 168.34 0 0 0 -48.05 2.45 166.66 166.66 0 0 0 -53.48 20.57q-6.41 3.81-12.57 8.29t-11.79 9.37a112.77 112.77 0 0 1 -21.13-54.74c5.17-3.75 10.46-7.24 15.82-10.48a112.14 112.14 0 0 1 131.17 24.57z" fill="#fff" stroke-width="7"/><path d="m205.55 149.09c-5.36 3.24-10.65 6.73-15.82 10.48-5.74 4.16-11.24 8.55-16.45 13.13a111.29 111.29 0 0 1 15.51-13.57c.28-.2.56-.41.85-.59a108.12 108.12 0 0 1 15.91-9.45z" fill="#fab232" stroke-width="7"/><path d="m309.06 229.64c.94 4.9 1.69 9.85 2.21 14.9s.83 10 .89 15a166.75 166.75 0 0 1 -8.92 56.6 168.67 168.67 0 0 1 -21.71 42.6 112.37 112.37 0 0 1 -69.79-5.23l-1.89-.81a112.55 112.55 0 0 0 36.82-45.7 111.36 111.36 0 0 0 8.85-56.69 111.71 111.71 0 0 1 53.54-20.67z" fill="#fff" stroke-width="7"/><path d="m366.06 238.3c.05.35.08.7.1 1.07a112.23 112.23 0 0 1 -84.63 119.39 168.67 168.67 0 0 0 21.71-42.6 166.75 166.75 0 0 0 8.92-56.6c-.06-5-.37-10-.89-15s-1.27-10-2.21-14.9a112.73 112.73 0 0 1 57 8.64z" fill="#fff" stroke-width="7"/><path d="m394.82 207.2-127-25.79c-27.38-5.56-53.82 9.88-55.66 34.64-1.81 24.19 21 43.86 47.81 44.36l47.54.88 1.72 45.23a29.09 29.09 0 0 0 30.18 28 29.08 29.08 0 0 0 28-30.18l-1.59-41.92 20.11.38c12.29.23 23.49-10.93 25.91-25.08 2.43-14.39-4.78-28.03-17.02-30.52z" fill="#fab232" stroke-width="10"/></g><rect fill="#1a1817" height="4.34" rx="1.8" transform="matrix(.99627038 .08628637 -.08628637 .99627038 21.16 -24.83)" width="32.22" x="281.71" y="230.22"/><rect fill="#1a1817" height="3.88" rx="1.61" transform="matrix(.99627038 .08628637 -.08628637 .99627038 21.86 -29.85)" width="20.34" x="346.12" y="236.08"/><rect fill="#1a1817" height="4.8" rx="1.99" transform="matrix(.4634507 -.88612271 .88612271 .4634507 -66.4 439.48)" width="12.83" x="323.29" y="272.17"/><rect fill="#1a1817" height="4.8" rx="1.99" transform="matrix(-.60279029 -.79789966 .79789966 -.60279029 330.82 713.82)" width="10.59" x="337.8" y="272.17"/></svg>